PathFileType	4	(X/Y/Z)	Patient4_TMGait_0pt7_02_left_09.trc.trc
DataRate	CameraRate	NumFrames	NumMarkers	Units	OrigDataRate	OrigDataStartFrame	OrigNumFrames
86.419753086420	86.419753086420	5	33	mm	86.419753086420	89	       141
Frame#	Time	Sacral			L.Shoulder			Chest			R.Shoulder			Neck			R.ASIS			L.ASIS			R.Thigh.Superior			R.Thigh.Lateral			R.Thigh.Inferior			R.Patella			L.Thigh.Superior			L.Thigh.Lateral			L.Thigh.Inferior			L.Patella			L.Shank.Superior			L.Shank.Lateral			L.Shank.Inferior			R.Shank.Superior			R.Shank.Lateral			R.Shank.Inferior			R.Heel			R.Midfoot.Superior			R.Midfoot.Lateral			R.Toe			L.Heel			L.Midfoot.Lateral			L.Midfoot.Superior			L.Toe			L.Elbow			L.Wrist			R.Elbow			R.Wrist			
		X1	Y1	Z1	X2	Y2	Z2	X3	Y3	Z3	X4	Y4	Z4	X5	Y5	Z5	X6	Y6	Z6	X7	Y7	Z7	X8	Y8	Z8	X9	Y9	Z9	X10	Y10	Z10	X11	Y11	Z11	X12	Y12	Z12	X13	Y13	Z13	X14	Y14	Z14	X15	Y15	Z15	X16	Y16	Z16	X17	Y17	Z17	X18	Y18	Z18	X19	Y19	Z19	X20	Y20	Z20	X21	Y21	Z21	X22	Y22	Z22	X23	Y23	Z23	X24	Y24	Z24	X25	Y25	Z25	X26	Y26	Z26	X27	Y27	Z27	X28	Y28	Z28	X29	Y29	Z29	X30	Y30	Z30	X31	Y31	Z31	X32	Y32	Z32	X33	Y33	Z33	

89	10.908285714286	800.950357177362	1001.279596048424	494.615575372264	998.268401935426	1421.406478486669	302.077980227379	1100.522241083353	1347.144066802242	461.971113432983	1023.367883485799	1433.156440637172	633.822291942514	1007.509129686691	1482.495383581017	453.470678515238	1030.302004166455	931.913080419088	609.023423840361	1006.131585945883	951.898434065593	330.140217870496	1095.843902589313	748.638585049569	585.517221413620	1027.262384389340	630.914546138694	640.886004947410	1116.824162189625	589.765198904929	565.590278973817	1132.188091253917	498.921779310186	572.927185880485	1047.866471464264	734.798168983444	354.395904170704	958.489035131930	623.121817975477	288.006606762413	1044.436423405054	535.148297532474	343.033593303179	1033.413937525669	449.180527621438	339.117396426526	960.526654073634	395.006776497709	333.700392762952	816.714681889617	362.334490166093	285.592576709689	794.816400687929	234.920947284054	341.517342447129	1105.003600816779	408.335282296506	577.030343960140	1035.571260807291	301.805789619805	635.692396746247	1082.497390179177	208.542148398002	573.939235076451	953.791843048397	43.309321428809	541.229174098887	1125.424223174750	98.825807575986	579.980819122411	1035.932197862450	37.457557505518	616.440162052661	1244.348975203933	44.000599304656	609.223096199818	600.910771712670	182.601251904614	379.575563545181	655.337214820215	129.619262264543	302.289313757722	759.853233821080	133.603111896792	323.544704570263	832.196633495918	30.224358456850	302.536765379398	963.056833397125	1077.574372646448	177.597427040636	1212.206651059649	1020.634130050261	193.796920618059	877.394349881440	1128.004349048403	762.975592563992	852.126746230063	866.532155754371	772.666529139048	
90	10.919857142857	800.628881142107	1002.787727836283	497.947193531074	997.559006436072	1422.120006226162	303.892922610990	1101.142540400088	1347.867079055715	463.119664561089	1025.461792981285	1433.996681813756	635.462656935377	1008.141778878138	1483.326354176562	455.198888953792	1030.576083597375	932.892781717751	611.113359103869	1005.766921551283	952.660305433544	332.951126117644	1094.075652349505	747.579466015883	588.420789145983	1023.602985070483	630.825081608568	642.587342923885	1112.453741431694	588.894400428732	566.836232137010	1126.612328258308	498.088640579212	573.543047230323	1052.197452588622	738.218930346797	357.781902143659	968.093883963808	624.370908643869	290.062867784858	1056.122935001862	538.603727984770	346.296685384739	1046.749219972047	451.538864579013	341.950618339077	972.517495553097	397.273452489649	335.909569281153	827.977849478445	368.866852416629	286.911375122534	802.158809696574	241.911908925920	342.365054459194	1098.910973103333	407.856320309873	577.715311125015	1029.092057595401	301.615100254363	636.293977310779	1075.347352183655	208.270001371968	574.181031139131	945.751850917909	43.305351820123	541.362732281662	1117.461962512379	98.846457440851	580.153699612378	1027.874403387989	37.419433625470	616.555783254854	1236.320460838140	43.712320117479	609.357721290430	606.655811559770	198.035719087438	379.288472212702	658.875811267605	142.127960529201	302.240905170499	763.743031264839	140.461149856403	324.084900283419	830.170543756803	30.302295585099	303.198996175197	955.970186995494	1077.390828466406	182.863615080955	1202.133841479771	1006.048266406721	196.581475378583	884.269884031083	1125.778390110921	764.886724848200	867.716552485514	863.424866365956	772.371978756497	
91	10.931428571429	800.099574622876	1004.246270335128	501.157624009655	996.567568289713	1422.773314325772	305.589011067122	1101.570052646106	1348.454633024988	464.050524283147	1027.548496558702	1434.701523319724	636.962073377286	1008.643744884529	1484.095927201487	456.817023535247	1030.670336115987	933.786592965825	612.960118020994	1005.224997786255	953.362715495671	335.699081354080	1092.103599319727	746.608696443652	590.717754008378	1020.016705834227	630.839534893635	644.129394062821	1107.936554401247	588.088798522091	567.757290437417	1120.851579684757	497.319292966620	573.983660453633	1056.180187459118	742.007497879083	361.184816039708	977.432159609193	626.160159534968	292.118567260092	1067.369211657365	542.722863908026	349.678159486743	1059.890793668251	454.648072797373	344.967665518023	984.643772798596	400.069837138102	338.255819533894	839.628371251410	375.173356430773	288.332524926252	810.546118721636	248.606290220867	343.403993705979	1092.683180365637	407.427467957484	578.274599795633	1022.524235703964	301.477548488111	636.865329516655	1068.129134723351	208.041616109836	574.369303491681	937.656349722790	43.324284217079	541.496012365661	1109.431550313754	98.782099290352	580.279506236481	1019.772903139847	37.390657002235	616.665412924046	1228.255166876350	43.414990721760	609.448593175631	613.893935379151	211.620885653102	379.107903672909	664.382712049557	153.440094028858	302.319932855846	769.357920494102	147.146431347680	324.857190885726	830.814463723027	30.999949159266	304.075116892806	949.247339462841	1077.214777487197	188.053213901057	1191.121058585706	990.417723205476	199.291506422754	891.467045356708	1123.413280262889	766.787468259023	884.385597647443	860.473277785302	772.161291654987	
92	10.943000000000	799.405967367587	1005.655330948063	504.260310640389	995.335652953862	1423.393663299873	307.171301497444	1101.799035945400	1348.926211914566	464.775943437554	1029.603255591102	1435.295317224355	638.320812006166	1009.031557966462	1484.823167631817	458.324677212729	1030.599174157165	934.622691267592	614.579569216712	1004.419645993917	954.017018512190	338.329381083158	1089.955336534571	745.763543069924	592.404344761781	1016.506700765223	630.958510504453	645.516288404986	1103.306481304073	587.356275956957	568.393612969731	1114.942062611925	496.621554657175	574.269721579893	1059.767453062131	746.167200430036	364.549563810157	986.366137942483	628.512360111502	294.135262982916	1078.084134408806	547.494062248407	353.020768035840	1072.735164659355	458.516564081346	347.974182103800	996.829965414313	403.386049560113	340.601998265040	851.543655732366	381.073401984590	289.816932151204	820.050805015541	254.742712164773	344.563511044889	1086.355175878751	407.053240825207	578.726392838733	1015.888485705754	301.400511103730	637.418458040338	1060.854301512612	207.859421667648	574.518013414177	929.515230209284	43.362888933614	541.638438728149	1101.343739330504	98.661760096812	580.372375620934	1011.635347171378	37.373716231199	616.777617769330	1220.157109669640	43.136686670670	609.517588254094	622.637857330834	222.741004981291	379.058641043944	671.980031193306	162.986573142113	302.534426992141	776.908295275245	153.310110193538	325.793080852278	834.635244237132	32.307572025997	305.114732611848	942.943740161871	1077.044329091865	193.165104743829	1179.013176597009	973.901261246665	201.924812555260	899.000415990286	1120.939654676412	768.654785872687	902.146780857846	857.796028456066	771.952940342010	
93	10.954571428571	798.595471256487	1007.015524028632	507.277055945958	993.900029909044	1424.001054048109	308.646518732731	1101.829230713237	1349.308630641905	465.313803680595	1031.597311624391	1435.807574986551	639.540897138887	1009.313706749660	1485.523608222264	459.721572186701	1030.383785521685	935.421902618792	615.990457519120	1003.277593371932	954.641526623029	340.785883141539	1087.646590296860	745.050671126180	593.535221719840	1013.037986248701	631.165250316150	646.755714077876	1098.572205685701	586.691809689333	568.799731195388	1108.899214136317	495.994266642075	574.421311012141	1062.929736512300	750.682001080691	367.810910728793	994.778715404941	631.417427686140	296.066583496392	1088.199449112333	552.876624121496	356.167721605059	1085.188824522842	463.127539372080	350.789708340130	1009.012822489503	407.188906405040	342.815113375487	863.623288162932	386.379914541141	291.321174719176	830.746606314695	260.073341504608	345.769028408174	1079.943730954114	406.730711171333	579.087292322654	1009.191263881849	301.379889813388	637.955206265264	1053.527371077454	207.720119898638	574.637735872141	921.340741162321	43.413382902075	541.794438451314	1093.212973734696	98.514880837444	580.442602416615	1003.471441989501	37.367637153296	616.895516893676	1212.032469794059	42.898602959781	609.580327013977	632.923276371171	230.904197121890	379.180115821289	681.752363857293	170.300044456159	302.888057066701	786.568460738365	158.617839416511	326.806872896389	842.017254966974	34.114347409204	306.210386431831	937.091276248750	1076.877890110109	198.195890723979	1165.659485667023	956.723568854062	204.485549018208	906.879432998909	1118.396828630937	770.466977426331	921.020446082305	855.529183044637	771.649819685835	
